<?xml version="1.0" encoding="UTF-8"?>
<svg id="Layer_2" data-name="Layer 2" xmlns="http://www.w3.org/2000/svg" xmlns:xlink="http://www.w3.org/1999/xlink" viewBox="0 0 414.17 167.33">
  <defs>
    <style>
      .cls-1 {
        fill: url(#linear-gradient-2);
      }

      .cls-2 {
        fill: url(#linear-gradient-17);
      }

      .cls-3 {
        fill: url(#linear-gradient-15);
      }

      .cls-4 {
        fill: url(#linear-gradient-18);
      }

      .cls-5 {
        fill: url(#linear-gradient-28);
      }

      .cls-6 {
        fill: url(#linear-gradient-14);
      }

      .cls-7 {
        fill: url(#linear-gradient-20);
      }

      .cls-8 {
        fill: url(#linear-gradient-6);
      }

      .cls-9 {
        fill: url(#linear-gradient-11);
      }

      .cls-10 {
        fill: url(#linear-gradient-10);
      }

      .cls-11 {
        fill: url(#linear-gradient-16);
      }

      .cls-12 {
        fill: url(#linear-gradient-21);
      }

      .cls-13 {
        fill: url(#linear-gradient-25);
      }

      .cls-14 {
        fill: url(#linear-gradient-5);
      }

      .cls-15 {
        fill: url(#linear-gradient-7);
      }

      .cls-16 {
        fill: url(#linear-gradient-24);
      }

      .cls-17 {
        fill: url(#linear-gradient-9);
      }

      .cls-18 {
        fill: url(#linear-gradient-22);
      }

      .cls-19 {
        fill: url(#linear-gradient-3);
      }

      .cls-20 {
        fill: url(#linear-gradient);
      }

      .cls-21 {
        fill: url(#linear-gradient-27);
      }

      .cls-22 {
        fill: url(#linear-gradient-29);
      }

      .cls-23 {
        fill: url(#linear-gradient-23);
      }

      .cls-24 {
        fill: url(#linear-gradient-19);
      }

      .cls-25 {
        fill: url(#linear-gradient-4);
      }

      .cls-26 {
        fill: url(#linear-gradient-8);
      }

      .cls-27 {
        fill: url(#linear-gradient-12);
      }

      .cls-28 {
        fill: url(#linear-gradient-13);
      }

      .cls-29 {
        fill: url(#linear-gradient-26);
      }
    </style>
    <linearGradient id="linear-gradient" x1="125.58" y1="162.95" x2="393.12" y2="162.1" gradientUnits="userSpaceOnUse">
      <stop offset="0" stop-color="#faf3cb"/>
      <stop offset=".62" stop-color="#e8ce84"/>
      <stop offset="1" stop-color="#c7963b"/>
    </linearGradient>
    <linearGradient id="linear-gradient-2" x1="125.58" y1="163.01" x2="393.12" y2="162.16" xlink:href="#linear-gradient"/>
    <linearGradient id="linear-gradient-3" x1="125.58" y1="163.06" x2="393.12" y2="162.21" xlink:href="#linear-gradient"/>
    <linearGradient id="linear-gradient-4" x1="125.58" y1="163.14" x2="393.13" y2="162.29" xlink:href="#linear-gradient"/>
    <linearGradient id="linear-gradient-5" x1="125.67" y1="163.18" x2="392.92" y2="162.33" xlink:href="#linear-gradient"/>
    <linearGradient id="linear-gradient-6" x1="125.58" y1="163.23" x2="393.12" y2="162.38" xlink:href="#linear-gradient"/>
    <linearGradient id="linear-gradient-7" x1="125.53" y1="163.27" x2="393.22" y2="162.42" xlink:href="#linear-gradient"/>
    <linearGradient id="linear-gradient-8" x1="125.59" y1="163.33" x2="393.12" y2="162.48" xlink:href="#linear-gradient"/>
    <linearGradient id="linear-gradient-9" x1="125.66" y1="163.38" x2="393.05" y2="162.53" xlink:href="#linear-gradient"/>
    <linearGradient id="linear-gradient-10" x1="125.58" y1="163.48" x2="393.13" y2="162.63" xlink:href="#linear-gradient"/>
    <linearGradient id="linear-gradient-11" x1="125.41" y1="163.54" x2="393.18" y2="162.69" xlink:href="#linear-gradient"/>
    <linearGradient id="linear-gradient-12" x1="125.58" y1="163.59" x2="393.13" y2="162.74" xlink:href="#linear-gradient"/>
    <linearGradient id="linear-gradient-13" x1="125.59" y1="163.64" x2="393.12" y2="162.79" xlink:href="#linear-gradient"/>
    <linearGradient id="linear-gradient-14" x1="125.55" y1="163.68" x2="393.13" y2="162.83" xlink:href="#linear-gradient"/>
    <linearGradient id="linear-gradient-15" x1="125.59" y1="163.72" x2="393.13" y2="162.87" xlink:href="#linear-gradient"/>
    <linearGradient id="linear-gradient-16" x1="125.58" y1="163.77" x2="393.13" y2="162.92" xlink:href="#linear-gradient"/>
    <linearGradient id="linear-gradient-17" x1="-5.51" y1="129.06" x2="253.06" y2="129.06" xlink:href="#linear-gradient"/>
    <linearGradient id="linear-gradient-18" x1="-5.52" y1="129.05" x2="253.06" y2="129.05" xlink:href="#linear-gradient"/>
    <linearGradient id="linear-gradient-19" x1="-5.52" y1="129.05" x2="253.06" y2="129.05" xlink:href="#linear-gradient"/>
    <linearGradient id="linear-gradient-20" x1="-5.52" y1="129.05" x2="253.06" y2="129.05" xlink:href="#linear-gradient"/>
    <linearGradient id="linear-gradient-21" x1="-5.52" y1="129.05" x2="253.05" y2="129.05" xlink:href="#linear-gradient"/>
    <linearGradient id="linear-gradient-22" x1="-5.51" y1="113.13" x2="253.06" y2="113.13" xlink:href="#linear-gradient"/>
    <linearGradient id="linear-gradient-23" x1="-5.52" y1="144.98" x2="253.06" y2="144.98" xlink:href="#linear-gradient"/>
    <linearGradient id="linear-gradient-24" x1="-5.52" y1="129.05" x2="253.05" y2="129.05" xlink:href="#linear-gradient"/>
    <linearGradient id="linear-gradient-25" x1="-5.46" y1="129.07" x2="253.08" y2="129.07" xlink:href="#linear-gradient"/>
    <linearGradient id="linear-gradient-26" x1="85.82" y1="56.58" x2="279.34" y2="31.63" xlink:href="#linear-gradient"/>
    <linearGradient id="linear-gradient-27" x1="87.85" y1="72.57" x2="281.4" y2="47.61" xlink:href="#linear-gradient"/>
    <linearGradient id="linear-gradient-28" x1="91.14" y1="98.12" x2="284.69" y2="73.16" xlink:href="#linear-gradient"/>
    <linearGradient id="linear-gradient-29" x1="92.26" y1="106.78" x2="285.81" y2="81.82" xlink:href="#linear-gradient"/>
  </defs>
  <g id="Layer_1-2" data-name="Layer 1">
    <g>
      <g>
        <polygon class="cls-20" points="128.77 159.59 133.16 159.59 133.16 167.31 134.33 167.31 134.33 159.59 138.69 159.59 138.69 158.56 128.77 158.56 128.77 159.59"/>
        <polygon class="cls-1" points="153.8 162.26 145.75 162.26 145.75 158.56 144.59 158.56 144.59 167.31 145.75 167.31 145.75 163.28 153.8 163.28 153.8 167.31 154.97 167.31 154.97 158.56 153.8 158.56 153.8 162.26"/>
        <polygon class="cls-19" points="162.68 163.28 169.76 163.28 169.76 162.26 162.68 162.26 162.68 159.59 170.07 159.59 170.07 158.56 161.51 158.56 161.51 167.31 170.09 167.31 170.09 166.28 162.68 166.28 162.68 163.28"/>
        <path class="cls-25" d="M193.55,164.71c0,1.1-.2,1.35-1.14,1.47-.34,.04-1.9,.11-2.65,.11-1.06,0-2.25-.04-2.83-.11-.73-.07-1.02-.34-1.13-1.01-.05-.43-.13-1.85-.13-2.56,0-1.52,.16-2.36,.48-2.63,.35-.28,1.43-.39,3.72-.39,1.56,0,2.58,.09,3.01,.26,.47,.2,.59,.47,.6,1.31v.3h1.09c-.01-1.05-.03-1.17-.12-1.53-.12-.55-.64-1.01-1.3-1.17-.66-.14-1.72-.22-3.24-.22-.75,0-1.94,.04-2.52,.08-1.23,.08-1.7,.2-2.11,.51-.59,.49-.81,1.53-.81,3.95,0,2.1,.18,3.08,.68,3.57,.59,.56,1.51,.69,4.94,.69,2.69,0,3.53-.13,4.04-.62,.41-.39,.47-.72,.54-2.4h-1.13c-.01,.17-.01,.34-.01,.39Z"/>
        <path class="cls-14" d="M209.49,163.49c1.17-.24,1.45-.69,1.45-2.31,0-.69-.07-1.14-.28-1.55-.28-.52-.79-.86-1.52-.97q-.59-.07-2.8-.1h-5.45v8.73h1.17v-3.35h4.28q1.86,0,2.28,.07c.55,.07,.86,.41,.93,.97q.07,.35,.07,1.48v.83h1.17v-1.24c0-1.48-.07-1.76-.41-2.1-.21-.24-.48-.35-.9-.45Zm-.59-.69c-.41,.1-.69,.1-2.55,.1h-4.28v-3.31h4.28c2.1,0,2.62,.03,2.97,.31,.28,.17,.45,.66,.45,1.28,0,1.04-.24,1.45-.86,1.62Z"/>
        <polygon class="cls-8" points="222.05 162.76 217.83 158.56 216.25 158.56 221.46 163.73 221.46 167.31 222.63 167.31 222.63 163.73 227.75 158.56 226.13 158.56 222.05 162.76"/>
        <path class="cls-15" d="M242.48,159.04q-.52-.41-3.49-.48h-5.52v8.73h1.17v-3.28h5.97c1.07-.03,1.45-.14,1.93-.55,.45-.38,.66-1,.66-2.21s-.21-1.83-.72-2.21Zm-.83,3.62c-.35,.31-.55,.35-2.66,.35h-4.35v-3.42h4.35c2.17,.03,2.31,.07,2.69,.31,.24,.21,.31,.52,.31,1.41,0,.79-.1,1.14-.35,1.35Z"/>
        <polygon class="cls-26" points="248.6 159.59 252.99 159.59 252.99 167.31 254.16 167.31 254.16 159.59 258.52 159.59 258.52 158.56 248.6 158.56 248.6 159.59"/>
        <path class="cls-17" d="M275.12,160.87c-.1-.86-.28-1.28-.62-1.62-.59-.55-1.52-.72-4.52-.72-.83,0-2.35,.07-2.9,.1-1.1,.07-1.55,.17-1.97,.48-.66,.52-.86,1.45-.86,3.8s.14,3.11,.66,3.66c.38,.41,.83,.59,1.69,.66,.52,.07,2.45,.1,3.76,.1,1.62,0,2.52-.07,3.24-.21,.79-.17,1.28-.69,1.41-1.55,.1-.62,.17-1.59,.17-2.59,0-.72-.03-1.62-.07-2.1Zm-1.28,4.35c-.1,.52-.38,.79-.9,.9-.55,.1-1.79,.17-3.07,.17-.62,0-2.1-.03-2.59-.07-.9-.07-1.24-.17-1.48-.41-.28-.31-.35-1.07-.35-3,0-1.66,.1-2.48,.45-2.8,.35-.31,1.24-.41,3.42-.41s2.9,.03,3.55,.14c.59,.07,.93,.35,1,.83,.07,.41,.14,1.45,.14,2.45,0,.79-.07,1.73-.17,2.21Z"/>
        <polygon class="cls-10" points="297.16 165.98 292.42 158.56 290.08 158.56 290.08 167.31 291.25 167.31 291.25 159.65 291.76 159.65 296.69 167.31 297.63 167.31 302.51 159.65 302.99 159.65 302.99 167.31 304.16 167.31 304.16 158.56 301.81 158.56 297.16 165.98"/>
        <path class="cls-9" d="M316.74,158.56h-1.86l-4.97,8.73h1.35l1.04-1.83h7.07l1.04,1.83h1.28l-4.93-8.73Zm-3.9,5.87l2.76-4.83h.48l2.73,4.83h-5.97Z"/>
        <path class="cls-27" d="M336.16,164.71c0,1.1-.2,1.35-1.14,1.47-.34,.04-1.9,.11-2.65,.11-1.06,0-2.25-.04-2.83-.11-.73-.07-1.02-.34-1.13-1.01-.05-.43-.13-1.85-.13-2.56,0-1.52,.16-2.36,.48-2.63,.35-.28,1.43-.39,3.72-.39,1.56,0,2.58,.09,3.01,.26,.47,.2,.59,.47,.6,1.31v.3h1.09c-.01-1.05-.03-1.17-.12-1.53-.12-.55-.64-1.01-1.3-1.17-.66-.14-1.72-.22-3.24-.22-.75,0-1.94,.04-2.52,.08-1.23,.08-1.7,.2-2.11,.51-.59,.49-.81,1.53-.81,3.95,0,2.1,.18,3.08,.68,3.57,.59,.56,1.51,.69,4.94,.69,2.69,0,3.53-.13,4.04-.62,.41-.39,.47-.72,.54-2.4h-1.13c-.01,.17-.01,.34-.01,.39Z"/>
        <polygon class="cls-28" points="352.71 162.26 344.66 162.26 344.66 158.56 343.49 158.56 343.49 167.31 344.66 167.31 344.66 163.28 352.71 163.28 352.71 167.31 353.87 167.31 353.87 158.56 352.71 158.56 352.71 162.26"/>
        <rect class="cls-6" x="360.42" y="158.56" width="1.17" height="8.74"/>
        <polygon class="cls-3" points="377.99 166.23 377.72 166.23 370.08 158.56 368.14 158.56 368.14 167.31 369.3 167.31 369.3 159.66 369.57 159.66 377.18 167.31 379.16 167.31 379.16 158.56 377.99 158.56 377.99 166.23"/>
        <polygon class="cls-11" points="386.88 163.28 393.96 163.28 393.96 162.26 386.88 162.26 386.88 159.59 394.27 159.59 394.27 158.56 385.71 158.56 385.71 167.31 394.28 167.31 394.28 166.28 386.88 166.28 386.88 163.28"/>
        <path class="cls-2" d="M118.08,109.15h-26.54l-31.64,1.04,30.44,1.9-.1,.28-49.69,2.31,47.96,1.83-.1,.24-70.64,2.31,69.63,.07-1.17,2.9-42.31,1.35,41.41,.83-.83,2L0,129.06l82.13,2.86-.86,2-42.27,.83,41.41,1.35-1.21,2.9-70.67,.07,69.67,2.31-.1,.24-49.66,1.83,47.93,2.31-.1,.28-31.64,1.93,30.44,1h26.54c8.87,0,14.94-3.97,18.22-11.94,1.86-4.42,1.62-7.07-.66-7.97,3-.9,5.42-3.55,7.28-7.97,3.28-7.97,.52-11.94-8.35-11.94Zm-6.25,27.88c-1.07,2.66-3.83,3.97-8.25,3.97h-17.25l3.28-7.97h18.6c3.52,0,4.76,1.35,3.62,4Zm6.63-15.94c-1.1,2.66-3.45,4-6.97,4h-18.6l3.31-7.97h17.25c4.42,0,6.11,1.31,5,3.97Z"/>
        <path class="cls-4" d="M149.38,148.96c8.85,0,15.11-4.42,18.78-13.27l10.99-26.55h-7.96l-10.54,25.43c-1.77,4.28-4.78,6.42-9.05,6.42h-11.12c-4.25,0-5.49-2.13-3.72-6.4l10.54-25.46h-7.96l-10.99,26.55c-3.67,8.85-1.08,13.27,7.77,13.27h13.27Z"/>
        <polygon class="cls-24" points="195.08 109.14 187.11 109.14 170.62 148.96 210.44 148.96 213.74 141 181.89 141 195.08 109.14"/>
        <polygon class="cls-7" points="242.86 109.14 234.89 109.14 218.4 148.96 258.22 148.96 261.53 141 229.67 141 242.86 109.14"/>
        <polygon class="cls-12" points="315.89 125.07 276.07 125.07 272.79 133.04 312.61 133.04 315.89 125.07"/>
        <polygon class="cls-18" points="279.37 117.11 319.19 117.11 322.5 109.14 282.68 109.14 279.37 117.11"/>
        <polygon class="cls-23" points="266.19 148.96 306 148.96 309.31 141 269.49 141 266.19 148.96"/>
        <polygon class="cls-16" points="366.97 117.11 370.28 109.14 330.46 109.14 327.18 117.11 343.08 117.11 329.89 148.96 337.86 148.96 351.05 117.11 366.97 117.11"/>
        <path class="cls-13" d="M404.8,109.15h-13.29c-8.83,0-15.11,4.42-18.77,13.29l-5.49,13.25c-3.66,8.87-1.07,13.29,7.76,13.29v.03l13.29-.03c8.83-.03,15.11-4.45,18.77-13.29l5.49-13.25c3.66-8.87,1.07-13.29-7.76-13.29Zm-.76,14.6l-4.38,10.63c-1.83,4.42-4.97,6.63-9.39,6.63h-10.63c-4.42,0-5.73-2.21-3.9-6.63l4.42-10.63c1.83-4.42,4.52-6.63,8.04-6.63h11.94c4.45,0,5.73,2.21,3.9,6.63Z"/>
      </g>
      <g>
        <path class="cls-29" d="M315.32,27.88c-.14,.07-.24,.07-.38,.1-.55,.03-1-.38-1.07-.93,0-.31,.1-.69,.31-.86,.21,.38,.38,.69,.55,1,.17,.31,.35,.52,.59,.69Z"/>
        <path class="cls-21" d="M343.48,10.39s-2.69,5.25-12.42,5.25-9.11-1.62-11.01-1.62h-9.87c1.21,0,23.02-.21,23.02-14.01,0,0-2.17,5.38-10.59,5.38s-10.15-1.35-12.53-1.35-6.63,4.73-6.63,4.73c0,0-5.42-2.55-12.18-2.55s-22.91,4.11-35.2,16.22c0,0,2.1-5.76,10.39-11.56,0,0-3.35-1.28-9.39-1.28s-12.39,.97-24.78,4.49c-12.42,3.52-33.26,10.56-42.65,10.56s-16.8,7.25-21.81,9.28c-5,2.04-6.9,2.83-12.73,2.83s-9.18-1.17-15.01-4c-5.8-2.83-7.59-5.07-13.84-5.07s-17.84,3.97-22.84,14.77c0,0,5.62-2.9,10.25-2.9s5.07,.93,8.28,.93,5.56-1.31,6.9-2.66,2.48-2.31,4.11-2.31,5.04,1.52,7.35,2.38c2.31,.9,8.01,3.69,15.15,3.69s16.84-4.14,16.84-4.14c0,0-5.56,5.87-5.56,13.29s6.87,12.35,8.04,13.66c0,0-7.73,6.66-7.73,10.49s5,5.73,6.87,7.83c1.83,2.1,5.94,5.52,5.94,9.35l9.01,9.08s1.55-1.1,1.55-4.83-2.04-5.42-4.04-9.08c-1.97-3.66-3.21-5.18-3.21-8.07s1.1-4.69,4.87-6.07c3.76-1.41,15.22-6.04,15.22-19.46,0-6.66-3.04-11.87-6.35-13.98,0,0,9.7,2.55,9.7,13.18,0,5.49-2.28,10.56-2.28,10.56,0,0,7.07,8.04,26.29,8.9,0,0-3.62-10.01-3.62-17.43s3.31-11.66,3.31-11.66c0,0-1.04,4.87-1.04,12.15s3.14,17.81,4,19.91,.83,2.21,.83,3.38-.45,6.49-7.56,6.49c-4.42,0-7.07-1.73-8.87-1.73s-5.9,1.24-8.35,7.9c0,0,2.21,2.04,8.76,2.04s9.94-.69,12.87-2.24c0,0,4.76-.52,7.38-.52s5.94-2.1,5.94-4.93,3.11-9.49,5.25-11.63c2-2,10.77-13.04,11.87-14.42l-7.52,13.32s11.97,.79,18.7-3.11c6.73-3.9,13.84-10.7,17.49-16.29,3.62-5.62,8.01-7.07,14.01-7.07s14.6,3.04,19.84,3.04,10.56-2.83,10.56-6.8-5.35-8.52-6.59-13.49c-1.24-4.97-1.17-5.14-1.04-5.49,.1-.35,16.63-1.83,16.63-13.32Zm-25.26,17.67c-.24,.14-.55,.24-.9,.28-1.1,1.52-2.83,1.21-3.76,.76-.97-.45-.79-5.04-.79-5.04-.55-.76-1.14-1.45-1.73-2,.45,.28,2.38,1.48,3.52,3.55,1.28,2.42,2.8,2.21,3.49,1.83,.69-.38,.86-.79,.86-.79,0,0,.21,.97-.69,1.41Z"/>
        <path class="cls-5" d="M204.11,66.83s7.41,4.76,14.83,5.5c0,0-6.98,5.31-11.8,5.31s-5.81,2.53-5.81,3.83,2.76,5.44,5.7,8.39c2.94,2.94,3.34,3.85,3.34,6.53s-2.09,3.34-2.09,3.34l-8.8-6.07s2.09-3.43-5.33-8.71c-3.34-2.78-5.56-2.69-5.56-5.37s15.52-12.74,15.52-12.74Z"/>
        <path class="cls-22" d="M256.2,75.73s12.65-.79,18.58-4.54c0,0-3.29,15.8-10.56,19.18-7.27,3.38-6.21,1.2-12.23,4.82-6.02,3.61-8.02,4.49-12.88,4.49,0,0,1.76-7.18,5.19-7.18s15.85-1.85,15.85-7.88-3.94-8.9-3.94-8.9Z"/>
      </g>
    </g>
  </g>
</svg>